<svg xmlns="http://www.w3.org/2000/svg" width="17" height="17" viewBox="0 0 17 17" fill="none">
   <path d="M4.06584 11.3334C4.14375 10.9863 4.00209 10.4904 3.75417 10.2425L2.03292 8.52127C1.49459 7.98294 1.28209 7.40919 1.43792 6.91335C1.60084 6.41752 2.10375 6.07752 2.85459 5.95002L5.06459 5.58169C5.38334 5.52502 5.77292 5.24169 5.92167 4.95127L7.14 2.50752C7.49417 1.80627 7.97584 1.41669 8.5 1.41669C9.02417 1.41669 9.50584 1.80627 9.86 2.50752L11.0783 4.95127C11.1704 5.13544 11.3617 5.31252 11.5671 5.43294L4.25045 14.1667C4.15128 14.2659 3.54211 14.875 3.54211 14.875L4.06584 11.3334Z" fill="#E1E1E1"/>
  <path d="M13.2458 10.2425C12.9908 10.4975 12.8491 10.9863 12.9341 11.3333L13.4229 13.4654C13.6283 14.3508 13.5008 15.0167 13.0616 15.3354C12.8845 15.4629 12.672 15.5267 12.4241 15.5267C12.0629 15.5267 11.6379 15.3921 11.1704 15.1158L9.09494 13.8833C8.76911 13.6921 8.23078 13.6921 7.90494 13.8833L5.82953 15.1158C5.04328 15.5763 4.37036 15.6542 3.93828 15.3354C3.77536 15.215 3.65494 15.0521 3.57703 14.8396L11.1704 5.45102C11.6869 5.31248 12.9766 5.75167 13.4229 5.82959L14.1383 5.95001C14.8891 6.07751 15.392 6.41751 15.5549 6.91334C15.7108 7.40917 15.4983 7.98292 14.9599 8.52126L13.2458 10.2425Z" fill="#E1E1E1"/>
</svg>


